#!OML:ASF F:\VICON\USERDATA\INSTALL\rory3\rory3.ASF
:FULLY-SPECIFIED
:DEGREES
718
root -4.05153 17.7453 13.8562 -134.449 -85.4242 126.81
lowerback 16.288 1.9754 -5.52946
upperback 3.87854 1.45239 -0.282694
thorax -5.11557 0.679567 2.54282
lowerneck -9.78289 -2.32972 -10.2718
upperneck 40.4933 -5.71701 6.15651
head 16.768 -3.87938 3.44962
rclavicle 7.33018e-016 8.15017e-015
rhumerus -41.7845 28.9402 -99.456
rradius 91.9516
rwrist 4.45383
rhand -18.0495 16.0472
rfingers 7.12502
rthumb 8.22253 -13.7728
lclavicle 7.33018e-016 8.15017e-015
lhumerus -41.4271 -33.5632 104.022
lradius 87.6828
lwrist 12.7558
lhand -13.741 32.3301
lfingers 7.12502
lthumb 12.3789 61.9436
rfemur -20.0948 -6.85305 13.3995
rtibia 58.5649
rfoot -6.97142 -1.87018
rtoes 7.99573
lfemur 1.87018 -1.18216 -25.4459
ltibia 18.53
lfoot -8.74891 -2.72756
ltoes -7.83594
719
root -4.14573 17.7363 13.8458 -131.668 -85.5545 124.129
lowerback 16.3569 1.96235 -5.58825
upperback 3.88182 1.41912 -0.297548
thorax -5.14727 0.664166 2.56614
lowerneck -9.84127 -2.37215 -10.1943
upperneck 40.5201 -5.77601 6.10907
head 16.8003 -3.89523 3.40446
rclavicle -3.40419e-015 -1.61016e-014
rhumerus -41.7618 28.7777 -99.3298
rradius 92.0615
rwrist 5.64568
rhand -18.1531 16.245
rfingers 7.12502
rthumb 8.12256 -13.5789
lclavicle -3.40419e-015 -1.61016e-014
lhumerus -41.4163 -34.1194 103.914
lradius 87.8635
lwrist 13.3147
lhand -13.7425 32.5798
lfingers 7.12502
lthumb 12.3774 62.1934
rfemur -20.4018 -6.70605 13.3395
rtibia 56.5655
rfoot -7.15089 -2.03933
rtoes 6.63594
lfemur 1.97445 -1.00598 -25.4135
ltibia 18.7527
lfoot -9.17553 -3.00073
ltoes -8.58892
720
root -4.23968 17.7306 13.8324 -130.106 -85.6182 122.738
lowerback 16.3609 1.93874 -5.67453
upperback 3.85778 1.37318 -0.306241
thorax -5.17267 0.644176 2.61495
lowerneck -9.851 -2.37026 -10.0792
upperneck 40.4815 -5.74947 6.00485
head 16.7684 -3.87569 3.3398
rclavicle 1.42876e-014 -1.71452e-014
rhumerus -41.7761 28.7259 -99.2697
rradius 92.1276
rwrist 6.86159
rhand -18.5017 16.7529
rfingers 7.12502
rthumb 7.7861 -13.0837
lclavicle 1.42876e-014 -1.71452e-014
lhumerus -40.873 -33.3583 103.692
lradius 87.2162
lwrist 12.9083
lhand -12.9228 32.2571
lfingers 7.12502
lthumb 13.1676 61.8213
rfemur -20.7095 -6.27671 13.3394
rtibia 54.4332
rfoot -7.31548 -2.39117
rtoes 5.51842
lfemur 2.0263 -0.985491 -25.3807
ltibia 18.9804
lfoot -9.4957 -3.15461
ltoes -8.47819
721
root -4.3337 17.7255 13.8167 -128.282 -85.7801 121.08
lowerback 16.3794 1.91939 -5.66497
upperback 3.84163 1.35146 -0.268608
thorax -5.19857 0.635235 2.65364
lowerneck -9.81631 -2.38498 -10.1007
upperneck 40.405 -5.74846 5.99785
head 16.7181 -3.87373 3.33998
rclavicle -4.34841e-016 -1.27719e-014
rhumerus -41.7538 28.5953 -99.0235
rradius 92.1776
rwrist 7.97045
rhand -19.1413 17.5605
rfingers 7.12502
rthumb 7.16876 -12.2981
lclavicle -4.34841e-016 -1.27719e-014
lhumerus -40.6503 -33.467 103.434
lradius 87.1204
lwrist 13.0793
lhand -12.0108 32.0787
lfingers 7.12502
lthumb 14.0466 61.584
rfemur -20.916 -5.75431 13.4037
rtibia 52.1887
rfoot -7.42822 -2.73592
rtoes 5.7218
lfemur 2.12323 -1.3999 -25.3499
ltibia 19.1501
lfoot -9.71248 -3.00468
ltoes -8.19331
722
root -4.42632 17.7202 13.7991 -124.306 -85.9636 117.19
lowerback 16.4968 1.91429 -5.68221
upperback 3.86357 1.33436 -0.244577
thorax -5.23786 0.62696 2.69108
lowerneck -9.75902 -2.4303 -10.1339
upperneck 40.2975 -5.79456 6.01132
head 16.6529 -3.88804 3.34351
rclavicle 5.91384e-015 -1.78906e-015
rhumerus -41.65 28.3806 -98.6822
rradius 92.2205
rwrist 8.88366
rhand -19.1128 18.1933
rfingers 7.12502
rthumb 7.19624 -11.6644
lclavicle 5.91384e-015 -1.78906e-015
lhumerus -40.3164 -33.8047 103.238
lradius 86.8212
lwrist 13.5481
lhand -11.7334 31.6883
lfingers 7.12502
lthumb 14.3139 61.1749
rfemur -20.9732 -5.38702 13.3182
rtibia 49.865
rfoot -7.53463 -2.73972
rtoes 6.73134
lfemur 2.29367 -1.85228 -25.3687
ltibia 19.2841
lfoot -9.90332 -2.9468
ltoes -7.42076
723
root -4.51862 17.7142 13.7796 -119.268 -86.0168 112.306
lowerback 16.5737 1.94704 -5.76845
upperback 3.85557 1.35272 -0.306561
thorax -5.28976 0.637841 2.66871
lowerneck -9.74217 -2.48934 -10.0901
upperneck 40.2797 -5.91391 6.07238
head 16.6549 -3.91916 3.34387
rclavicle 4.57205e-015 1.39149e-014
rhumerus -41.5883 28.0572 -98.4806
rradius 92.2402
rwrist 9.87628
rhand -18.4849 18.6743
rfingers 7.12502
rthumb 7.80231 -11.1618
lclavicle 4.57205e-015 1.39149e-014
lhumerus -39.9769 -34.0632 103.086
lradius 86.3705
lwrist 13.6374
lhand -11.0548 31.3513
lfingers 7.12502
lthumb 14.9677 60.7904
rfemur -21.0698 -5.02059 13.0614
rtibia 47.4775
rfoot -7.71797 -2.50109
rtoes 7.56399
lfemur 2.36353 -1.94576 -25.4373
ltibia 19.4126
lfoot -10.18 -3.20209
ltoes -6.22907
724
root -4.61089 17.7067 13.7575 -114.287 -86.0367 107.55
lowerback 16.5505 1.96646 -5.87642
upperback 3.85548 1.35821 -0.362559
thorax -5.27867 0.641356 2.66929
lowerneck -9.78597 -2.55554 -10.1058
upperneck 40.2622 -6.04464 6.19525
head 16.6795 -3.95458 3.38063
rclavicle 1.15916e-014 7.90169e-015
rhumerus -41.4928 27.7757 -98.3222
rradius 92.1646
rwrist 11.0117
rhand -17.9587 19.0465
rfingers 7.12502
rthumb 8.31016 -10.7701
lclavicle 1.15916e-014 7.90169e-015
lhumerus -39.6369 -34.2815 102.725
lradius 86.0959
lwrist 13.6209
lhand -9.41778 31.2672
lfingers 7.12502
lthumb 16.5442 60.5819
rfemur -21.2085 -4.5895 12.8081
rtibia 45.0256
rfoot -7.76683 -2.13778
rtoes 8.0501
lfemur 2.3792 -1.94987 -25.4905
ltibia 19.4978
lfoot -10.5383 -3.29798
ltoes -6.80848
